<?xml version="1.0" encoding="UTF-8" standalone="no"?><svg xmlns="http://www.w3.org/2000/svg" xmlns:xlink="http://www.w3.org/1999/xlink" contentScriptType="application/ecmascript" contentStyleType="text/css" height="927px" preserveAspectRatio="none" style="width:1051px;height:927px;" version="1.1" viewBox="0 0 1051 927" width="1051px" zoomAndPan="magnify"><defs><filter height="300%" id="ff24rnrv6cyur" width="300%" x="-1" y="-1"><feGaussianBlur result="blurOut" stdDeviation="2.0"/><feColorMatrix in="blurOut" result="blurOut2" type="matrix" values="0 0 0 0 0 0 0 0 0 0 0 0 0 0 0 0 0 0 .4 0"/><feOffset dx="4.0" dy="4.0" in="blurOut2" result="blurOut3"/><feBlend in="SourceGraphic" in2="blurOut3" mode="normal"/></filter></defs><g><rect fill="#FFFFFF" filter="url(#ff24rnrv6cyur)" height="734.3359" style="stroke: #A80036; stroke-width: 1.0;" width="10" x="37" y="96.2969"/><rect fill="#FFFFFF" filter="url(#ff24rnrv6cyur)" height="713.2031" style="stroke: #A80036; stroke-width: 1.0;" width="10" x="289" y="117.4297"/><rect fill="#FFFFFF" filter="url(#ff24rnrv6cyur)" height="579.8672" style="stroke: #A80036; stroke-width: 1.0;" width="10" x="587" y="146.5625"/><rect fill="#FFFFFF" filter="url(#ff24rnrv6cyur)" height="87.3984" style="stroke: #A80036; stroke-width: 1.0;" width="10" x="793" y="175.6953"/><rect fill="#FFFFFF" filter="url(#ff24rnrv6cyur)" height="735.3359" style="stroke: #A80036; stroke-width: 1.0;" width="10" x="999" y="96.2969"/><rect fill="#FFFFFF" filter="url(#ff24rnrv6cyur)" height="220.6016" style="stroke: #000000; stroke-width: 2.0;" width="304" x="498" y="278.0938"/><rect fill="#FFFFFF" filter="url(#ff24rnrv6cyur)" height="147.3359" style="stroke: #000000; stroke-width: 2.0;" width="284" x="508" y="302.2266"/><rect fill="#FFFFFF" filter="url(#ff24rnrv6cyur)" height="116.2031" style="stroke: #000000; stroke-width: 2.0;" width="264" x="518" y="326.3594"/><rect fill="#FFFFFF" height="56.9375" style="stroke: none; stroke-width: 1.0;" width="264" x="518" y="385.625"/><rect fill="#FFFFFF" filter="url(#ff24rnrv6cyur)" height="90.2031" style="stroke: #000000; stroke-width: 2.0;" width="424.5" x="241.5" y="629.2266"/><rect fill="#FFFFFF" height="43.9375" style="stroke: none; stroke-width: 1.0;" width="424.5" x="241.5" y="675.4922"/><rect fill="#FFFFFF" filter="url(#ff24rnrv6cyur)" height="90.2031" style="stroke: #000000; stroke-width: 2.0;" width="333.5" x="13" y="733.4297"/><rect fill="#FFFFFF" height="43.9375" style="stroke: none; stroke-width: 1.0;" width="333.5" x="13" y="779.6953"/><line style="stroke: #A80036; stroke-width: 1.0; stroke-dasharray: 5.0,5.0;" x1="42" x2="42" y1="86.2969" y2="840.6328"/><line style="stroke: #A80036; stroke-width: 1.0; stroke-dasharray: 5.0,5.0;" x1="293.5" x2="293.5" y1="86.2969" y2="840.6328"/><line style="stroke: #A80036; stroke-width: 1.0; stroke-dasharray: 5.0,5.0;" x1="592" x2="592" y1="86.2969" y2="840.6328"/><line style="stroke: #A80036; stroke-width: 1.0; stroke-dasharray: 5.0,5.0;" x1="797.5" x2="797.5" y1="86.2969" y2="840.6328"/><line style="stroke: #A80036; stroke-width: 1.0; stroke-dasharray: 5.0,5.0;" x1="1004" x2="1004" y1="86.2969" y2="840.6328"/><text fill="#000000" font-family="sans-serif" font-size="14" lengthAdjust="spacingAndGlyphs" textLength="32" x="23" y="82.9951">User</text><ellipse cx="42" cy="13" fill="#FEFECE" filter="url(#ff24rnrv6cyur)" rx="8" ry="8" style="stroke: #A80036; stroke-width: 2.0;"/><path d="M42,21 L42,48 M29,29 L55,29 M42,48 L29,63 M42,48 L55,63 " fill="none" filter="url(#ff24rnrv6cyur)" style="stroke: #A80036; stroke-width: 2.0;"/><text fill="#000000" font-family="sans-serif" font-size="14" lengthAdjust="spacingAndGlyphs" textLength="32" x="23" y="852.6279">User</text><ellipse cx="42" cy="865.9297" fill="#FEFECE" filter="url(#ff24rnrv6cyur)" rx="8" ry="8" style="stroke: #A80036; stroke-width: 2.0;"/><path d="M42,873.9297 L42,900.9297 M29,881.9297 L55,881.9297 M42,900.9297 L29,915.9297 M42,900.9297 L55,915.9297 " fill="none" filter="url(#ff24rnrv6cyur)" style="stroke: #A80036; stroke-width: 2.0;"/><rect fill="#FEFECE" filter="url(#ff24rnrv6cyur)" height="30.2969" style="stroke: #A80036; stroke-width: 1.5;" width="81" x="251.5" y="51"/><text fill="#000000" font-family="sans-serif" font-size="14" lengthAdjust="spacingAndGlyphs" textLength="67" x="258.5" y="70.9951">Front End</text><rect fill="#FEFECE" filter="url(#ff24rnrv6cyur)" height="30.2969" style="stroke: #A80036; stroke-width: 1.5;" width="81" x="251.5" y="839.6328"/><text fill="#000000" font-family="sans-serif" font-size="14" lengthAdjust="spacingAndGlyphs" textLength="67" x="258.5" y="859.6279">Front End</text><rect fill="#FEFECE" filter="url(#ff24rnrv6cyur)" height="30.2969" style="stroke: #A80036; stroke-width: 1.5;" width="124" x="528" y="51"/><text fill="#000000" font-family="sans-serif" font-size="14" lengthAdjust="spacingAndGlyphs" textLength="110" x="535" y="70.9951">Server (WebAPI)</text><rect fill="#FEFECE" filter="url(#ff24rnrv6cyur)" height="30.2969" style="stroke: #A80036; stroke-width: 1.5;" width="124" x="528" y="839.6328"/><text fill="#000000" font-family="sans-serif" font-size="14" lengthAdjust="spacingAndGlyphs" textLength="110" x="535" y="859.6279">Server (WebAPI)</text><rect fill="#FEFECE" filter="url(#ff24rnrv6cyur)" height="30.2969" style="stroke: #A80036; stroke-width: 1.5;" width="115" x="738.5" y="51"/><text fill="#000000" font-family="sans-serif" font-size="14" lengthAdjust="spacingAndGlyphs" textLength="101" x="745.5" y="70.9951">Datenbank API</text><rect fill="#FEFECE" filter="url(#ff24rnrv6cyur)" height="30.2969" style="stroke: #A80036; stroke-width: 1.5;" width="115" x="738.5" y="839.6328"/><text fill="#000000" font-family="sans-serif" font-size="14" lengthAdjust="spacingAndGlyphs" textLength="101" x="745.5" y="859.6279">Datenbank API</text><text fill="#000000" font-family="sans-serif" font-size="14" lengthAdjust="spacingAndGlyphs" textLength="76" x="963" y="82.9951">Datenbank</text><path d="M986,34 C986,24 1004,24 1004,24 C1004,24 1022,24 1022,34 L1022,60 C1022,70 1004,70 1004,70 C1004,70 986,70 986,60 L986,34 " fill="#FEFECE" filter="url(#ff24rnrv6cyur)" style="stroke: #000000; stroke-width: 1.5;"/><path d="M986,34 C986,44 1004,44 1004,44 C1004,44 1022,44 1022,34 " fill="none" style="stroke: #000000; stroke-width: 1.5;"/><text fill="#000000" font-family="sans-serif" font-size="14" lengthAdjust="spacingAndGlyphs" textLength="76" x="963" y="852.6279">Datenbank</text><path d="M986,865.9297 C986,855.9297 1004,855.9297 1004,855.9297 C1004,855.9297 1022,855.9297 1022,865.9297 L1022,891.9297 C1022,901.9297 1004,901.9297 1004,901.9297 C1004,901.9297 986,901.9297 986,891.9297 L986,865.9297 " fill="#FEFECE" filter="url(#ff24rnrv6cyur)" style="stroke: #000000; stroke-width: 1.5;"/><path d="M986,865.9297 C986,875.9297 1004,875.9297 1004,875.9297 C1004,875.9297 1022,875.9297 1022,865.9297 " fill="none" style="stroke: #000000; stroke-width: 1.5;"/><rect fill="#FFFFFF" filter="url(#ff24rnrv6cyur)" height="734.3359" style="stroke: #A80036; stroke-width: 1.0;" width="10" x="37" y="96.2969"/><rect fill="#FFFFFF" filter="url(#ff24rnrv6cyur)" height="713.2031" style="stroke: #A80036; stroke-width: 1.0;" width="10" x="289" y="117.4297"/><rect fill="#FFFFFF" filter="url(#ff24rnrv6cyur)" height="579.8672" style="stroke: #A80036; stroke-width: 1.0;" width="10" x="587" y="146.5625"/><rect fill="#FFFFFF" filter="url(#ff24rnrv6cyur)" height="87.3984" style="stroke: #A80036; stroke-width: 1.0;" width="10" x="793" y="175.6953"/><rect fill="#FFFFFF" filter="url(#ff24rnrv6cyur)" height="735.3359" style="stroke: #A80036; stroke-width: 1.0;" width="10" x="999" y="96.2969"/><polygon fill="#A80036" points="277,113.4297,287,117.4297,277,121.4297,281,117.4297" style="stroke: #A80036; stroke-width: 1.0;"/><line style="stroke: #A80036; stroke-width: 1.0;" x1="47" x2="283" y1="117.4297" y2="117.4297"/><text fill="#000000" font-family="sans-serif" font-size="13" lengthAdjust="spacingAndGlyphs" textLength="175" x="54" y="112.3638">"Klicke erstelle Plan Button"</text><polygon fill="#A80036" points="575,142.5625,585,146.5625,575,150.5625,579,146.5625" style="stroke: #A80036; stroke-width: 1.0;"/><line style="stroke: #A80036; stroke-width: 1.0;" x1="299" x2="581" y1="146.5625" y2="146.5625"/><text fill="#000000" font-family="sans-serif" font-size="13" lengthAdjust="spacingAndGlyphs" textLength="199" x="306" y="141.4966">"WebApi Request: erstelle Plan"</text><polygon fill="#A80036" points="781,171.6953,791,175.6953,781,179.6953,785,175.6953" style="stroke: #A80036; stroke-width: 1.0;"/><line style="stroke: #A80036; stroke-width: 1.0;" x1="597" x2="787" y1="175.6953" y2="175.6953"/><text fill="#000000" font-family="sans-serif" font-size="13" lengthAdjust="spacingAndGlyphs" textLength="171" x="604" y="170.6294">"Hole Daten der Personen"</text><polygon fill="#A80036" points="987,200.8281,997,204.8281,987,208.8281,991,204.8281" style="stroke: #A80036; stroke-width: 1.0;"/><line style="stroke: #A80036; stroke-width: 1.0;" x1="803" x2="993" y1="204.8281" y2="204.8281"/><text fill="#000000" font-family="sans-serif" font-size="13" lengthAdjust="spacingAndGlyphs" textLength="164" x="810" y="199.7622">"Lade Liste der Personen"</text><polygon fill="#A80036" points="814,229.9609,804,233.9609,814,237.9609,810,233.9609" style="stroke: #A80036; stroke-width: 1.0;"/><line style="stroke: #A80036; stroke-width: 1.0; stroke-dasharray: 2.0,2.0;" x1="808" x2="998" y1="233.9609" y2="233.9609"/><text fill="#000000" font-family="sans-serif" font-size="13" lengthAdjust="spacingAndGlyphs" textLength="172" x="820" y="228.895">"return Liste der Personen"</text><polygon fill="#A80036" points="608,259.0938,598,263.0938,608,267.0938,604,263.0938" style="stroke: #A80036; stroke-width: 1.0;"/><line style="stroke: #A80036; stroke-width: 1.0; stroke-dasharray: 2.0,2.0;" x1="602" x2="797" y1="263.0938" y2="263.0938"/><text fill="#000000" font-family="sans-serif" font-size="13" lengthAdjust="spacingAndGlyphs" textLength="172" x="614" y="258.0278">"return Liste der Personen"</text><path d="M498,278.0938 L575,278.0938 L575,285.0938 L565,295.0938 L498,295.0938 L498,278.0938 " fill="#EEEEEE" style="stroke: #000000; stroke-width: 1.0;"/><rect fill="none" height="220.6016" style="stroke: #000000; stroke-width: 2.0;" width="304" x="498" y="278.0938"/><text fill="#000000" font-family="sans-serif" font-size="13" font-weight="bold" lengthAdjust="spacingAndGlyphs" textLength="32" x="513" y="291.1606">loop</text><text fill="#000000" font-family="sans-serif" font-size="11" font-weight="bold" lengthAdjust="spacingAndGlyphs" textLength="111" x="590" y="290.3042">["Für jeden Tag"]</text><path d="M508,302.2266 L585,302.2266 L585,309.2266 L575,319.2266 L508,319.2266 L508,302.2266 " fill="#EEEEEE" style="stroke: #000000; stroke-width: 1.0;"/><rect fill="none" height="147.3359" style="stroke: #000000; stroke-width: 2.0;" width="284" x="508" y="302.2266"/><text fill="#000000" font-family="sans-serif" font-size="13" font-weight="bold" lengthAdjust="spacingAndGlyphs" textLength="32" x="523" y="315.2935">loop</text><text fill="#000000" font-family="sans-serif" font-size="11" font-weight="bold" lengthAdjust="spacingAndGlyphs" textLength="123" x="600" y="314.437">["Für jede Person"]</text><path d="M518,326.3594 L582,326.3594 L582,333.3594 L572,343.3594 L518,343.3594 L518,326.3594 " fill="#EEEEEE" style="stroke: #000000; stroke-width: 1.0;"/><rect fill="none" height="116.2031" style="stroke: #000000; stroke-width: 2.0;" width="264" x="518" y="326.3594"/><text fill="#000000" font-family="sans-serif" font-size="13" font-weight="bold" lengthAdjust="spacingAndGlyphs" textLength="19" x="533" y="339.4263">alt</text><text fill="#000000" font-family="sans-serif" font-size="11" font-weight="bold" lengthAdjust="spacingAndGlyphs" textLength="180" x="597" y="338.5698">["Person kann an dem Tag"]</text><line style="stroke: #A80036; stroke-width: 1.0;" x1="597" x2="639" y1="364.625" y2="364.625"/><line style="stroke: #A80036; stroke-width: 1.0;" x1="639" x2="639" y1="364.625" y2="377.625"/><line style="stroke: #A80036; stroke-width: 1.0;" x1="598" x2="639" y1="377.625" y2="377.625"/><polygon fill="#A80036" points="608,373.625,598,377.625,608,381.625,604,377.625" style="stroke: #A80036; stroke-width: 1.0;"/><text fill="#000000" font-family="sans-serif" font-size="13" lengthAdjust="spacingAndGlyphs" textLength="164" x="604" y="359.5591">Weise Person dem Tag zu</text><line style="stroke: #000000; stroke-width: 1.0; stroke-dasharray: 2.0,2.0;" x1="518" x2="782" y1="386.625" y2="386.625"/><text fill="#000000" font-family="sans-serif" font-size="11" font-weight="bold" lengthAdjust="spacingAndGlyphs" textLength="137" x="523" y="396.8354">["Person kann nicht"]</text><line style="stroke: #A80036; stroke-width: 1.0;" x1="597" x2="639" y1="421.5625" y2="421.5625"/><line style="stroke: #A80036; stroke-width: 1.0;" x1="639" x2="639" y1="421.5625" y2="434.5625"/><line style="stroke: #A80036; stroke-width: 1.0;" x1="598" x2="639" y1="434.5625" y2="434.5625"/><polygon fill="#A80036" points="608,430.5625,598,434.5625,608,438.5625,604,434.5625" style="stroke: #A80036; stroke-width: 1.0;"/><text fill="#000000" font-family="sans-serif" font-size="13" lengthAdjust="spacingAndGlyphs" textLength="101" x="604" y="416.4966">Nächste Person</text><line style="stroke: #A80036; stroke-width: 1.0;" x1="597" x2="639" y1="477.6953" y2="477.6953"/><line style="stroke: #A80036; stroke-width: 1.0;" x1="639" x2="639" y1="477.6953" y2="490.6953"/><line style="stroke: #A80036; stroke-width: 1.0;" x1="598" x2="639" y1="490.6953" y2="490.6953"/><polygon fill="#A80036" points="608,486.6953,598,490.6953,608,494.6953,604,490.6953" style="stroke: #A80036; stroke-width: 1.0;"/><text fill="#000000" font-family="sans-serif" font-size="13" lengthAdjust="spacingAndGlyphs" textLength="160" x="604" y="472.6294">Füge Tag dem Plan hinzu</text><polygon fill="#A80036" points="786,522.8281,796,526.8281,786,530.8281,790,526.8281" style="stroke: #A80036; stroke-width: 1.0;"/><line style="stroke: #A80036; stroke-width: 1.0;" x1="597" x2="792" y1="526.8281" y2="526.8281"/><text fill="#000000" font-family="sans-serif" font-size="13" lengthAdjust="spacingAndGlyphs" textLength="100" x="604" y="521.7622">"Speichere Plan</text><polygon fill="#A80036" points="987,551.9609,997,555.9609,987,559.9609,991,555.9609" style="stroke: #A80036; stroke-width: 1.0;"/><line style="stroke: #A80036; stroke-width: 1.0;" x1="798" x2="993" y1="555.9609" y2="555.9609"/><text fill="#000000" font-family="sans-serif" font-size="13" lengthAdjust="spacingAndGlyphs" textLength="105" x="805" y="550.895">"Speichere Plan"</text><polygon fill="#A80036" points="809,581.0938,799,585.0938,809,589.0938,805,585.0938" style="stroke: #A80036; stroke-width: 1.0;"/><line style="stroke: #A80036; stroke-width: 1.0;" x1="803" x2="998" y1="585.0938" y2="585.0938"/><text fill="#000000" font-family="sans-serif" font-size="13" lengthAdjust="spacingAndGlyphs" textLength="116" x="815" y="580.0278">"Plan gespeichert"</text><polygon fill="#A80036" points="608,610.2266,598,614.2266,608,618.2266,604,614.2266" style="stroke: #A80036; stroke-width: 1.0;"/><line style="stroke: #A80036; stroke-width: 1.0; stroke-dasharray: 2.0,2.0;" x1="602" x2="797" y1="614.2266" y2="614.2266"/><text fill="#000000" font-family="sans-serif" font-size="13" lengthAdjust="spacingAndGlyphs" textLength="116" x="614" y="609.1606">"Plan gespeichert"</text><path d="M241.5,629.2266 L305.5,629.2266 L305.5,636.2266 L295.5,646.2266 L241.5,646.2266 L241.5,629.2266 " fill="#EEEEEE" style="stroke: #000000; stroke-width: 1.0;"/><rect fill="none" height="90.2031" style="stroke: #000000; stroke-width: 2.0;" width="424.5" x="241.5" y="629.2266"/><text fill="#000000" font-family="sans-serif" font-size="13" font-weight="bold" lengthAdjust="spacingAndGlyphs" textLength="19" x="256.5" y="642.2935">alt</text><text fill="#000000" font-family="sans-serif" font-size="11" font-weight="bold" lengthAdjust="spacingAndGlyphs" textLength="174" x="320.5" y="641.437">["Plan erfolgreich erstellt"]</text><polygon fill="#A80036" points="310,663.4922,300,667.4922,310,671.4922,306,667.4922" style="stroke: #A80036; stroke-width: 1.0;"/><line style="stroke: #A80036; stroke-width: 1.0; stroke-dasharray: 2.0,2.0;" x1="304" x2="586" y1="667.4922" y2="667.4922"/><text fill="#000000" font-family="sans-serif" font-size="13" lengthAdjust="spacingAndGlyphs" textLength="153" x="316" y="662.4263">"Status Code: 200 (OK)"</text><line style="stroke: #000000; stroke-width: 1.0; stroke-dasharray: 2.0,2.0;" x1="241.5" x2="666" y1="676.4922" y2="676.4922"/><text fill="#000000" font-family="sans-serif" font-size="11" font-weight="bold" lengthAdjust="spacingAndGlyphs" textLength="236" x="246.5" y="686.7026">["Plan konnte nicht erstellt werden"]</text><polygon fill="#A80036" points="310,707.4297,300,711.4297,310,715.4297,306,711.4297" style="stroke: #A80036; stroke-width: 1.0;"/><line style="stroke: #A80036; stroke-width: 1.0; stroke-dasharray: 2.0,2.0;" x1="304" x2="586" y1="711.4297" y2="711.4297"/><text fill="#000000" font-family="sans-serif" font-size="13" lengthAdjust="spacingAndGlyphs" textLength="264" x="316" y="706.3638">"Status Code: 500 (Internal Server Error)"</text><path d="M13,733.4297 L77,733.4297 L77,740.4297 L67,750.4297 L13,750.4297 L13,733.4297 " fill="#EEEEEE" style="stroke: #000000; stroke-width: 1.0;"/><rect fill="none" height="90.2031" style="stroke: #000000; stroke-width: 2.0;" width="333.5" x="13" y="733.4297"/><text fill="#000000" font-family="sans-serif" font-size="13" font-weight="bold" lengthAdjust="spacingAndGlyphs" textLength="19" x="28" y="746.4966">alt</text><text fill="#000000" font-family="sans-serif" font-size="11" font-weight="bold" lengthAdjust="spacingAndGlyphs" textLength="165" x="92" y="745.6401">["Status Code: 200 (OK)"]</text><polygon fill="#A80036" points="58,767.6953,48,771.6953,58,775.6953,54,771.6953" style="stroke: #A80036; stroke-width: 1.0;"/><line style="stroke: #A80036; stroke-width: 1.0; stroke-dasharray: 2.0,2.0;" x1="52" x2="288" y1="771.6953" y2="771.6953"/><text fill="#000000" font-family="sans-serif" font-size="13" lengthAdjust="spacingAndGlyphs" textLength="198" x="64" y="766.6294">"Plan wurde erfolgreich erstellt"</text><line style="stroke: #000000; stroke-width: 1.0; stroke-dasharray: 2.0,2.0;" x1="13" x2="346.5" y1="780.6953" y2="780.6953"/><text fill="#000000" font-family="sans-serif" font-size="11" font-weight="bold" lengthAdjust="spacingAndGlyphs" textLength="276" x="18" y="790.9058">["Status Code: 500 (Internal Server Error)"]</text><polygon fill="#A80036" points="58,811.6328,48,815.6328,58,819.6328,54,815.6328" style="stroke: #A80036; stroke-width: 1.0;"/><line style="stroke: #A80036; stroke-width: 1.0; stroke-dasharray: 2.0,2.0;" x1="52" x2="288" y1="815.6328" y2="815.6328"/><text fill="#000000" font-family="sans-serif" font-size="13" lengthAdjust="spacingAndGlyphs" textLength="218" x="64" y="810.5669">"Plan konnte nicht erstellt werden"</text><!--
@startuml
actor u as "User"
participant fe as "Front End"
participant s as "Server (WebAPI)"
participant dbapi as "Datenbank API"
database db as "Datenbank"

activate db
activate u
u -> fe: "Klicke erstelle Plan Button"
activate fe
fe -> s: "WebApi Request: erstelle Plan"
activate s
s -> dbapi: "Hole Daten der Personen"
activate dbapi
dbapi -> db: "Lade Liste der Personen"
dbapi <- - db: "return Liste der Personen"
s <- - dbapi: "return Liste der Personen"
deactivate dbapi
loop "Für jeden Tag"
loop "Für jede Person"
alt "Person kann an dem Tag"
s -> s: Weise Person dem Tag zu
else "Person kann nicht"
s -> s: Nächste Person
end
end
s -> s: Füge Tag dem Plan hinzu
end
activate dbapi
s -> dbapi: "Speichere Plan
dbapi -> db: "Speichere Plan"
dbapi <- db: "Plan gespeichert"
s <- - dbapi: "Plan gespeichert"
deactivate dbapi
alt "Plan erfolgreich erstellt"
fe <- - s: "Status Code: 200 (OK)"
else "Plan konnte nicht erstellt werden"
fe <- - s: "Status Code: 500 (Internal Server Error)"
end
deactivate s
alt "Status Code: 200 (OK)"
u <- - fe: "Plan wurde erfolgreich erstellt"
else "Status Code: 500 (Internal Server Error)"
u <- - fe: "Plan konnte nicht erstellt werden"
end
deactivate fe
deactivate u
@enduml

PlantUML version 1.2019.04(Fri Mar 29 15:44:36 UTC 2019)
(GPL source distribution)
Java Runtime: OpenJDK Runtime Environment
JVM: OpenJDK 64-Bit Server VM
Java Version: 1.8.0_201-heroku-b09
Operating System: Linux
OS Version: 4.4.0-1044-aws
Default Encoding: UTF-8
Language: en
Country: US
--></g></svg>